<svg id="Group_32" data-name="Group 32" xmlns="http://www.w3.org/2000/svg" xmlns:xlink="http://www.w3.org/1999/xlink" width="275.145" height="50" viewBox="0 0 275.145 50">
  <defs>
    <clipPath id="clip-path">
      <rect id="Rectangle_199" data-name="Rectangle 199" width="275.145" height="50" fill="none"/>
    </clipPath>
  </defs>
  <g id="Group_31" data-name="Group 31" clip-path="url(#clip-path)">
    <path id="Path_200" data-name="Path 200" d="M17.4,25c0,13.807-3.9,25-8.7,25S0,38.807,0,25,3.9,0,8.7,0s8.7,11.193,8.7,25" fill="#102c4f"/>
    <path id="Path_201" data-name="Path 201" d="M77.754,26.419c0,13.786-5.675,24.375-8.433,24.375-2.929,0-2.917-24.375-2.917-24.375S66.387,2.045,69.321,2.044c2.758,0,8.433,10.589,8.433,24.375" transform="translate(-46.103 -1.419)" fill="#102c4f"/>
    <path id="Path_202" data-name="Path 202" d="M116.354,31.633c0,12.426-4.919,22.136-8.516,22.136a149.1,149.1,0,0,0,1.72-22.5,149.094,149.094,0,0,0-1.72-22.5c3.6,0,8.516,10.437,8.516,22.864" transform="translate(-74.87 -6.088)" fill="#102c4f"/>
    <path id="Path_203" data-name="Path 203" d="M144.21,37.27c0,11.046-4.919,19.677-8.516,19.677,0,0,3.46-5.146,3.46-20s-3.46-20-3.46-20c3.6,0,8.516,9.278,8.516,20.323" transform="translate(-94.21 -11.766)" fill="#102c4f"/>
    <path id="Path_204" data-name="Path 204" d="M245.75,46.529a28.349,28.349,0,0,0-1.091,6.414v6.37a29.32,29.32,0,0,1-12.129,3.054c-8.2,0-15.009-6.632-15.009-16.187,0-9.162,6.894-16.143,15.576-16.143a28.911,28.911,0,0,1,10.646,2.4V39.5h-.349c-1.352-2.007-5.366-7.548-10.165-7.592-5.367-.044-9.119,5.759-9.119,14.267,0,8.552,3.97,14.311,9.337,14.354a11.01,11.01,0,0,0,5.41-1.57V52.943c0-2.792-2.007-5.672-2.356-6.414v-.175h9.249Z" transform="translate(-151.021 -20.854)" fill="#102c4f"/>
    <path id="Path_205" data-name="Path 205" d="M318.7,60.128a26.635,26.635,0,0,0,1.047-6.413V35.041a20.424,20.424,0,0,0-1.178-6.283v-.175l6.632-.829v25.96a26.623,26.623,0,0,0,1.047,6.413V60.3H318.7Z" transform="translate(-221.175 -19.27)" fill="#102c4f"/>
    <path id="Path_206" data-name="Path 206" d="M351.821,72.989c0-7.286,5.061-11.126,11.082-11.126,5.977,0,11.126,3.839,11.126,11.126,0,7.373-5.149,11.387-11.126,11.387-6.021,0-11.082-4.014-11.082-11.387m16.143,0c0-4.887-1.658-9.511-5.061-9.511-3.447,0-5.017,4.669-5.017,9.511,0,4.93,1.527,9.729,5.017,9.729,3.4,0,5.061-4.756,5.061-9.729" transform="translate(-244.263 -42.95)" fill="#102c4f"/>
    <path id="Path_207" data-name="Path 207" d="M453.1,49.09c0,7.853-4.712,11.562-9.511,11.562a8.124,8.124,0,0,1-5.541-2.138l-5.367,2.05-.043-25.523a22.313,22.313,0,0,0-1.135-6.283l-.043-.175,6.675-.828V41.5a7.53,7.53,0,0,1,6.413-3.316c4.669,0,8.552,3.752,8.552,10.908m-5.89,0c0-4.1-1.483-7.766-5.061-7.766a5.625,5.625,0,0,0-4.014,1.964V57.118a6.522,6.522,0,0,0,3.1.785c4.232,0,5.977-4.319,5.977-8.813" transform="translate(-299.555 -19.27)" fill="#102c4f"/>
    <path id="Path_208" data-name="Path 208" d="M533.051,81.278a3.869,3.869,0,0,1-3.97,2.967,4,4,0,0,1-4.189-3.316,7.821,7.821,0,0,1-6.632,3.4,6.632,6.632,0,0,1-7.024-6.719c0-4.756,4.974-7.592,10.689-6.85a13.054,13.054,0,0,1,2.836.567v-2.7c0-3.229-1.178-4.974-2.923-4.974-2.661,0-8.071,4.363-8.857,5.454h-.218V63.521a34.311,34.311,0,0,1,9.38-1.658c5.41,0,8.072,2.836,8.072,7.024V78.66c0,2.356.873,3.272,2.749,2.487Zm-8.29-1.745V72.6a4.514,4.514,0,0,1-.742-.043c-4.668-.742-7.068,1.57-7.068,4.363a4.2,4.2,0,0,0,4.189,4.45,4.83,4.83,0,0,0,3.621-1.832" transform="translate(-354.942 -42.95)" fill="#102c4f"/>
    <path id="Path_209" data-name="Path 209" d="M589.149,60.128a26.621,26.621,0,0,0,1.047-6.413V35.041a20.451,20.451,0,0,0-1.178-6.283v-.175l6.632-.829v25.96a26.645,26.645,0,0,0,1.047,6.413V60.3h-7.548Z" transform="translate(-408.945 -19.27)" fill="#102c4f"/>
    <path id="Path_210" data-name="Path 210" d="M648.488,40.976c0,6.283-5.629,9.642-11.649,9.642H631.69V56.29a26.606,26.606,0,0,0,1.047,6.413v.175h-7.9V62.7a26.618,26.618,0,0,0,1.047-6.413V38.053a26.625,26.625,0,0,0-1.047-6.414v-.174h13.351c6.108,0,10.3,4.188,10.3,9.511m-6.109,0c0-3.534-1.789-7.635-6.065-7.635H631.69V48.786H636.1c4.276,0,6.282-4.014,6.282-7.81" transform="translate(-433.816 -21.846)" fill="#102c4f"/>
    <path id="Path_211" data-name="Path 211" d="M705.19,72.989c0-7.286,5.061-11.126,11.082-11.126,5.977,0,11.126,3.839,11.126,11.126,0,7.373-5.149,11.387-11.126,11.387-6.021,0-11.082-4.014-11.082-11.387m16.143,0c0-4.887-1.658-9.511-5.061-9.511-3.447,0-5.017,4.669-5.017,9.511,0,4.93,1.527,9.729,5.017,9.729,3.4,0,5.061-4.756,5.061-9.729" transform="translate(-489.601 -42.95)" fill="#102c4f"/>
    <path id="Path_212" data-name="Path 212" d="M787.218,82.413V76.828h.174c2.4,2.574,5.323,5.8,8.6,5.8,1.832,0,3.709-1,3.709-3.1,0-2.182-2.094-2.967-5.672-4.188-4.494-1.571-7.2-3.491-7.2-7.024,0-4.058,3.578-6.457,8.682-6.457a20.16,20.16,0,0,1,7.679,1.7v5.323h-.175c-2.312-2.749-5.018-5.367-7.984-5.367-1.876,0-3.622.96-3.622,2.792,0,2.138,2.356,2.836,5.8,4.014,4.93,1.7,6.85,3.8,6.85,7.068,0,4.843-4.057,6.981-8.421,6.981a22.841,22.841,0,0,1-8.42-1.964" transform="translate(-546.279 -42.95)" fill="#102c4f"/>
    <path id="Path_213" data-name="Path 213" d="M865.221,64.559a6.978,6.978,0,0,1-6.545,4.756c-3.534,0-5.584-2.487-5.584-6.544V48.852h-3.185V47.325a15.83,15.83,0,0,0,8.29-7.155h.349v6.894h5.978v1.789h-5.978V62.2c0,2.356,1.178,3.447,3.054,3.447a7.032,7.032,0,0,0,3.621-1.091" transform="translate(-590.076 -27.889)" fill="#102c4f"/>
  </g>
</svg>
